<?xml version="1.0" standalone="no"?>
<!DOCTYPE svg PUBLIC "-//W3C//DTD SVG 20010904//EN"
 "http://www.w3.org/TR/2001/REC-SVG-20010904/DTD/svg10.dtd">
<svg version="1.0" xmlns="http://www.w3.org/2000/svg"
 width="256.000000pt" height="256.000000pt" viewBox="0 0 256.000000 256.000000"
 preserveAspectRatio="xMidYMid meet">

<g transform="translate(0.000000,256.000000) scale(0.100000,-0.100000)"
fill="#000000" stroke="none">
<path d="M1217 2293 c3 -7 15 -13 28 -13 13 0 25 6 28 13 3 9 -5 13 -28 13
-23 0 -31 -4 -28 -13z"/>
<path d="M1072 2233 c-23 -4 -23 -5 -6 -24 15 -17 16 -19 0 -25 -10 -4 -32 4
-56 21 -27 19 -45 25 -60 20 -20 -7 -21 -8 -4 -26 9 -11 22 -18 28 -17 7 2 14
-1 16 -7 7 -14 -57 -34 -113 -34 -40 -1 -49 3 -58 22 -8 18 -9 16 -4 -12 6
-42 11 -47 28 -32 11 9 27 -2 75 -53 34 -35 62 -71 62 -80 0 -26 18 -28 86 -6
86 26 177 27 203 1 10 -10 31 -55 45 -99 29 -88 53 -112 106 -112 36 0 76 35
86 74 5 22 -2 33 -48 75 -37 34 -58 63 -67 90 -11 39 -41 58 -41 26 0 -10 -6
-12 -17 -8 -16 6 -16 5 -4 -10 16 -20 9 -32 -15 -23 -10 4 -14 13 -11 26 3 11
1 20 -4 20 -5 0 -17 16 -26 36 -17 34 -17 36 0 45 9 6 17 17 17 25 0 12 4 12
20 4 20 -11 30 3 10 15 -5 3 -10 15 -10 26 0 10 -6 19 -14 19 -10 0 -14 -9
-13 -26 3 -41 -22 -50 -65 -23 -21 13 -37 30 -38 37 0 6 -9 12 -19 12 -10 0
-21 7 -25 15 -5 15 -19 16 -64 8z m305 -269 c-3 -3 -12 -4 -19 -1 -8 3 -5 6 6
6 11 1 17 -2 13 -5z"/>
<path d="M860 2195 l-35 -14 39 2 c22 1 41 8 44 15 5 15 -3 14 -48 -3z"/>
<path d="M770 2161 c0 -6 4 -13 10 -16 6 -3 7 1 4 9 -7 18 -14 21 -14 7z"/>
<path d="M610 2119 c-52 -17 -166 -53 -252 -81 l-158 -50 5 -52 c2 -28 7 -111
10 -185 8 -179 27 -269 63 -298 15 -13 37 -23 48 -23 30 0 70 34 82 70 10 28
8 31 -48 77 l-59 48 0 95 c1 95 10 136 41 179 16 23 17 23 41 5 14 -11 33 -31
43 -46 10 -15 21 -25 25 -23 3 3 -5 -17 -18 -42 -23 -46 -29 -73 -17 -73 4 0
22 14 42 31 36 32 135 83 184 94 33 8 28 24 73 -255 20 -124 46 -285 59 -358
12 -73 19 -135 14 -138 -4 -3 -31 -12 -60 -20 -204 -59 -188 -52 -188 -87 0
-18 9 -66 20 -107 20 -76 51 -120 88 -120 16 0 482 129 655 181 96 30 99 31
118 72 l19 42 -59 55 c-46 42 -60 64 -66 93 -5 30 -10 37 -23 33 -147 -44
-245 -67 -251 -57 -4 6 -29 129 -55 274 -66 366 -90 483 -98 477 -6 -5 -48 42
-48 54 0 13 30 5 39 -11 9 -15 10 -12 6 12 -18 122 -18 123 -61 100 -37 -19
-73 -19 -80 0 -5 12 -10 13 -20 4 -19 -16 -29 13 -14 40 13 26 15 26 -100 -10z
m190 -199 c0 -5 -4 -10 -10 -10 -5 0 -10 5 -10 10 0 6 5 10 10 10 6 0 10 -4
10 -10z"/>
<path d="M2394 2112 c-41 -30 -94 -87 -94 -102 0 -4 8 -10 18 -14 21 -7 107
-76 95 -76 -5 0 -19 7 -31 16 -12 8 -27 14 -32 12 -15 -5 -143 -189 -253 -364
-56 -90 -107 -164 -113 -164 -7 0 -22 8 -35 19 l-23 19 -49 -81 -48 -80 26
-27 c14 -15 53 -43 85 -61 32 -19 61 -42 63 -51 10 -34 -23 -53 -85 -49 -9 1
-46 21 -82 45 l-64 45 -17 -22 -16 -22 5 23 c4 12 9 32 12 45 5 21 4 20 -10
-3 -8 -14 -15 -35 -16 -48 0 -13 -5 -33 -12 -45 -10 -20 -10 -21 5 -8 10 7 17
10 17 5 0 -15 -315 -535 -318 -525 -2 5 21 49 50 97 30 49 66 112 82 139 25
45 25 47 4 23 -20 -24 -83 -43 -558 -173 -294 -80 -562 -153 -595 -162 -33 -9
-63 -19 -67 -22 -5 -4 44 -38 108 -75 l116 -69 55 13 c30 6 57 10 60 7 2 -3
10 -27 17 -54 12 -47 15 -50 115 -111 l104 -63 161 41 c155 39 162 42 198 81
l37 41 34 -21 c36 -22 86 -28 103 -11 5 5 149 45 319 90 171 44 318 83 327 87
15 7 10 17 -33 72 -27 36 -48 70 -45 78 7 17 -46 194 -68 227 -29 45 -38 32
-30 -44 3 -38 4 -70 1 -70 -3 0 -26 26 -51 58 l-44 58 55 85 c30 46 63 89 73
94 15 8 110 137 110 149 0 2 36 64 81 137 74 122 206 378 287 554 66 146 88
240 60 263 -31 24 -55 22 -94 -6z"/>
<path d="M2259 1967 c-194 -243 -461 -628 -446 -643 3 -3 12 5 20 18 83 133
140 217 147 213 4 -2 41 46 81 107 41 62 109 159 152 216 43 57 77 108 75 113
-2 5 -15 -6 -29 -24z"/>
<path d="M1891 1174 c0 -11 3 -14 6 -6 3 7 2 16 -1 19 -3 4 -6 -2 -5 -13z"/>
<path d="M1915 1160 c-3 -5 -1 -10 4 -10 6 0 11 5 11 10 0 6 -2 10 -4 10 -3 0
-8 -4 -11 -10z"/>
<path d="M1690 1080 c-6 -11 -8 -20 -6 -20 3 0 10 9 16 20 6 11 8 20 6 20 -3
0 -10 -9 -16 -20z"/>
<path d="M1660 1030 c-6 -11 -8 -20 -6 -20 3 0 10 9 16 20 6 11 8 20 6 20 -3
0 -10 -9 -16 -20z"/>
<path d="M1630 980 c-6 -11 -8 -20 -6 -20 3 0 10 9 16 20 6 11 8 20 6 20 -3 0
-10 -9 -16 -20z"/>
<path d="M1590 910 c-6 -11 -8 -20 -6 -20 3 0 10 9 16 20 6 11 8 20 6 20 -3 0
-10 -9 -16 -20z"/>
</g>
</svg>
